<?xml version="1.0" standalone="no"?>
<!DOCTYPE svg PUBLIC "-//W3C//DTD SVG 20010904//EN"
 "http://www.w3.org/TR/2001/REC-SVG-20010904/DTD/svg10.dtd">
<svg version="1.0" xmlns="http://www.w3.org/2000/svg"
 width="778.000000pt" height="238.000000pt" viewBox="0 0 778.000000 238.000000"
 preserveAspectRatio="xMidYMid meet">

<g transform="translate(0.000000,238.000000) scale(0.100000,-0.100000)"
fill="#000000" stroke="none">
<path d="M2570 2271 c-148 -45 -221 -207 -156 -346 73 -158 281 -193 402 -69
68 71 88 153 59 250 -37 126 -179 203 -305 165z"/>
<path d="M3805 2268 c-100 -35 -169 -130 -168 -234 1 -174 159 -292 325 -242
53 16 132 88 153 140 22 54 22 140 0 196 -21 52 -99 124 -153 140 -47 14 -116
14 -157 0z"/>
<path d="M5040 2264 c-125 -54 -187 -186 -146 -310 70 -213 354 -235 458 -35
86 164 -35 361 -222 360 -30 0 -71 -7 -90 -15z"/>
<path d="M2081 1004 c-214 -58 -371 -261 -371 -483 0 -167 116 -353 267 -430
62 -31 63 -31 226 -31 163 0 164 0 226 31 34 17 65 38 68 46 7 18 -22 82 -40
89 -7 2 -43 -9 -79 -25 -174 -79 -341 -52 -457 74 -83 92 -114 211 -86 332 19
83 50 136 108 190 124 115 294 139 441 63 32 -16 64 -30 71 -30 6 0 21 17 33
38 l22 39 -23 20 c-86 79 -269 114 -406 77z"/>
<path d="M3836 1009 c-112 -26 -233 -112 -299 -212 -103 -154 -104 -375 -4
-533 40 -65 119 -137 188 -172 l62 -32 164 0 c163 0 164 0 225 31 74 37 172
133 210 205 152 284 -7 631 -327 714 -48 12 -165 12 -219 -1z m267 -132 c252
-115 302 -441 97 -630 -79 -74 -156 -101 -273 -95 -143 6 -258 82 -323 213
-26 55 -29 69 -29 165 0 95 3 111 28 162 48 99 129 167 242 205 63 20 191 11
258 -20z"/>
<path d="M5411 1004 c-172 -46 -311 -187 -356 -359 -28 -111 -14 -228 42 -345
35 -73 142 -179 215 -213 54 -26 64 -27 222 -27 l164 0 64 33 c71 37 79 54 48
106 -23 37 -21 37 -119 -4 -175 -73 -328 -44 -444 85 -63 69 -90 143 -90 245
-1 185 118 328 308 370 64 15 78 15 144 1 40 -9 93 -27 116 -41 24 -14 50 -25
57 -25 8 0 24 17 36 38 l22 39 -23 20 c-85 79 -270 114 -406 77z"/>
<path d="M6913 993 c-10 -4 -13 -90 -13 -384 l0 -379 179 0 c173 0 180 1 186
21 4 11 4 36 0 55 l-6 34 -124 0 -125 0 0 247 0 246 148 -199 c81 -109 210
-283 286 -386 l139 -188 62 0 62 0 6 217 c4 120 7 329 7 466 l0 247 -55 0
c-50 0 -55 -2 -56 -22 -1 -13 -4 -183 -8 -379 l-6 -355 -270 364 c-148 200
-278 372 -288 383 -13 14 -31 19 -65 18 -26 0 -53 -3 -59 -6z"/>
<path d="M430 969 c-7 -12 -95 -220 -196 -463 l-183 -441 56 -3 c31 -2 59 1
64 5 4 4 74 174 157 377 82 202 152 364 155 359 12 -19 107 -264 107 -276 0
-6 -43 -113 -95 -237 l-94 -225 51 -3 c28 -2 56 -1 62 1 6 3 78 169 161 371
82 201 152 366 155 366 3 0 73 -166 155 -370 l150 -370 62 0 62 0 -35 83 c-19
45 -105 253 -192 462 l-158 380 -44 0 -44 0 -28 -65 c-15 -36 -45 -107 -66
-158 l-39 -94 -64 159 -65 158 -41 3 c-34 3 -44 -1 -53 -19z"/>
<path d="M1387 984 c-4 -4 -7 -214 -7 -466 l0 -458 60 0 60 0 -2 463 -3 462
-50 3 c-28 2 -54 0 -58 -4z"/>
<path d="M2694 976 c-3 -8 -4 -31 -2 -52 l3 -39 202 -5 201 -5 38 -31 c107
-86 101 -245 -13 -316 -36 -22 -49 -23 -263 -28 l-225 -5 -3 -218 -2 -217 60
0 60 0 0 165 0 166 112 -3 112 -3 99 -163 99 -162 64 0 c35 0 64 3 64 6 0 3
-43 78 -96 166 -53 87 -94 161 -93 162 2 2 23 13 47 25 57 29 113 86 143 147
33 68 34 189 1 251 -35 67 -78 110 -144 143 l-61 30 -199 0 c-161 0 -200 -3
-204 -14z"/>
<path d="M5967 984 c-4 -4 -7 -214 -7 -466 l0 -458 245 0 246 0 61 31 c76 38
148 105 192 178 123 204 70 479 -121 623 -111 83 -146 92 -393 96 -118 2 -218
0 -223 -4z m426 -118 c104 -24 193 -100 240 -204 33 -72 31 -217 -4 -292 -47
-102 -129 -174 -229 -204 -38 -11 -94 -16 -192 -16 l-138 0 0 365 0 365 133 0
c76 0 157 -6 190 -14z"/>
<path d="M6907 144 c-4 -4 -7 -25 -7 -46 l0 -38 241 0 240 0 -3 43 -3 42 -231
3 c-127 1 -233 -1 -237 -4z"/>
</g>
</svg>
